<svg width="13" height="13" viewBox="0 0 13 13" fill="none" xmlns="http://www.w3.org/2000/svg">
<path fill-rule="evenodd" clip-rule="evenodd" d="M4.75 10C7.37335 10 9.5 7.87335 9.5 5.25C9.5 2.62665 7.37335 0.5 4.75 0.5C2.12665 0.5 0 2.62665 0 5.25C0 7.87335 2.12665 10 4.75 10ZM4.75 9C2.67893 9 1 7.32107 1 5.25C1 3.17893 2.67893 1.5 4.75 1.5C6.82107 1.5 8.5 3.17893 8.5 5.25C8.5 7.32107 6.82107 9 4.75 9ZM11.3464 12.5536L8.34645 9.55355L9.05355 8.84645L12.0536 11.8464L11.3464 12.5536Z" fill="#CCCCCC"/>
</svg>
